<?xml version="1.0" encoding="UTF-8"?>
<svg id="Warstwa_1" data-name="Warstwa 1" xmlns="http://www.w3.org/2000/svg" viewBox="0 0 16 16">
  <circle cx="8" cy="8" r="8" fill="#009fe3" stroke-width="0"/>
  <path d="m15.56,8.99c-.44,3.98-4.41,3.6-7.38,3.62-2.25-.07-4.74.22-6.93-.22-.48-.13-.77-.32-.81-.51-.06-.36.65-.58.89-.64,3.67-.72,7.85.31,11.28-.55,1.69-.62,2.08-3.01-.18-3.23-2.18-.47-10.13,1.42-8.64-3.37,1.05-2.82,4.22-2.66,6.54-2.7,1.2.04,3.38-.05,4.09.69.17.3-.44.6-1.4.75-2.1.53-6.09-.69-7.43,1.65-.15.93.95,1.23,1.63,1.34,2.47.49,8.07-1.03,8.33,3.06v.13Z" fill="#fff" stroke-width="0"/>
  <path d="m15.76,5.99c-.5-1.62-.79-2.39-1.86-3.39-.4.03-.86.23-1.28.28-.74.08-.86.14-1.66.08-1.08-.08-1.67-.01-2.66.04-.07,0-.46.1-.37.1.1,0,.42-.02.59-.04.33-.04.06-.06-.07-.05-.53.01-1.78.23-2.37.81-.14.14-1.04.78-.09,1.55.12.1.14.13.46.24,1.06.36,2.12.3,3.41.3,2.26-.1,5.54.05,5.69,2.82.08.47-.12.75-.25,1.28-.07.23-.08.37-.2.53-.18.23-.38.62-.55.78-.47.38-1.27.92-1.91,1.08-.67.09-1.56.17-2.22.2-.92.03-1.91,0-2.85,0-.74.03-1.55.03-2.3.02-1.03.02-2.07.02-3.08-.09-.29-.01-.6-.12-.87-.1.11.27.37.57.58.8.62.69,1.6,1.39,2.3,1.82.53.33,1.47.93,3.1.93.79,0,1.52.02,2.28-.11,1.76-.31,3.31-1.33,4.48-2.61s1.6-2.92,1.76-3.62c.12-.52.33-2.41-.06-3.6l-.02-.05Z" fill="#3c3c3b" stroke-width="0"/>
</svg>