<?xml version="1.0" encoding="UTF-8"?>
<svg id="Warstwa_1" data-name="Warstwa 1" xmlns="http://www.w3.org/2000/svg" viewBox="0 0 160.47 46.48">
  <circle cx="23.24" cy="23.24" r="23.24" fill="#009fe3" stroke-width="0"/>
  <path d="m45.19,26.11c-1.27,11.55-12.8,10.47-21.43,10.51-6.55-.2-13.77.64-20.13-.64-1.4-.39-2.24-.93-2.34-1.5-.17-1.04,1.87-1.67,2.58-1.86,10.67-2.08,22.8.89,32.75-1.61,4.92-1.81,6.04-8.75-.51-9.39-6.33-1.36-29.43,4.12-25.1-9.79,3.05-8.2,12.26-7.73,19-7.84,3.48.1,9.81-.13,11.89,1.99.49.86-1.29,1.75-4.08,2.17-6.1,1.54-17.7-2.02-21.59,4.79-.44,2.69,2.75,3.57,4.75,3.9,7.18,1.41,23.45-3,24.21,8.88v.37Z" fill="#fff" stroke-width="0"/>
  <text transform="translate(46.48 33.23)" fill="#3c3c3b" font-family="FranklinGothic-Demi, &apos;Franklin Gothic Demi&apos;" font-weight="300"><tspan x="0" y="0" font-size="39.6">o</tspan><tspan x="21.19" y="0" font-size="39.6" letter-spacing="0em">ciafy</tspan><tspan x="103.49" y="0" font-size="22.63" letter-spacing="0em"> </tspan></text>
  <path d="m45.78,17.4c-1.44-4.72-2.31-6.93-5.4-9.85-1.16.08-2.5.68-3.72.82-2.14.24-2.5.39-4.82.23-3.14-.22-4.86-.03-7.73.13-.21.01-1.34.3-1.06.28.28-.02,1.21-.07,1.71-.13.97-.12.18-.17-.21-.15-1.54.04-5.17.65-6.88,2.36-.41.4-3.03,2.27-.27,4.51.36.29.41.37,1.34.69,3.09,1.05,6.14.87,9.91.87,6.56-.29,16.1.13,16.52,8.19.22,1.36-.36,2.19-.72,3.72-.22.65-.22,1.09-.57,1.54-.51.67-1.12,1.79-1.6,2.25-1.36,1.09-3.68,2.67-5.55,3.15-1.94.26-4.54.49-6.46.59-2.69.09-5.55-.02-8.27.02-2.14.09-4.49.09-6.67.07-2.98.05-6,.06-8.96-.27-.85-.03-1.73-.35-2.52-.29.31.77,1.08,1.65,1.68,2.32,1.81,2,4.64,4.03,6.68,5.28,1.55.95,4.27,2.71,9.01,2.69,2.3,0,4.42.07,6.64-.32,5.11-.9,9.61-3.85,13.01-7.58s4.64-8.49,5.1-10.5c.34-1.5.95-7.01-.16-10.46l-.04-.14Z" fill="#3c3c3b" stroke-width="0"/>
</svg>