<?xml version="1.0" encoding="UTF-8"?>
<svg id="Warstwa_2" data-name="Warstwa 2" xmlns="http://www.w3.org/2000/svg" viewBox="0 0 101.92 34.28">
  <g id="Warstwa_1-2" data-name="Warstwa 1">
    <g>
      <path d="m9.21,7.52c2.97,0,5.29.97,6.96,2.92,1.67,1.95,2.5,4.38,2.5,7.31s-.87,5.29-2.6,7.22c-1.73,1.93-4.03,2.89-6.9,2.89s-5.01-.95-6.67-2.86c-1.67-1.91-2.5-4.36-2.5-7.35,0-2.07.38-3.84,1.13-5.29.75-1.45,1.79-2.62,3.1-3.51,1.31-.89,2.97-1.33,4.98-1.33Zm.15,3.77c-1.09,0-1.91.42-2.47,1.27s-.83,2.52-.83,5.04c0,2.31.26,3.96.79,4.97s1.35,1.51,2.47,1.51c.98,0,1.77-.43,2.37-1.29s.91-2.49.91-4.9c0-2.56-.27-4.31-.8-5.22-.53-.92-1.35-1.37-2.44-1.37Z" fill="#3c3c3b" stroke-width="0"/>
      <path d="m39.4,20.13c-.22,2.31-1.13,4.17-2.74,5.6-1.61,1.42-3.68,2.14-6.22,2.14-2.76,0-5-.91-6.74-2.74-1.73-1.82-2.6-4.26-2.6-7.32s.89-5.53,2.66-7.43c1.77-1.9,4.14-2.85,7.11-2.85,2.38,0,4.36.72,5.93,2.15,1.57,1.43,2.43,3.22,2.6,5.38l-5.38.31c-.18-2.35-1.2-3.52-3.05-3.52-2.28,0-3.42,1.87-3.42,5.61,0,2.49.32,4.07.96,4.74.64.67,1.41,1.01,2.33,1.01,1.78,0,2.84-1.13,3.19-3.38l5.38.33Z" fill="#3c3c3b" stroke-width="0"/>
      <path d="m48.18.52v5.76h-5.76V.52h5.76Zm0,7.4v19.53h-5.76V7.93h5.76Z" fill="#3c3c3b" stroke-width="0"/>
      <path d="m69.87,27.45h-5.59c-.18-.77-.27-1.79-.27-3.05-.98,1.39-1.95,2.32-2.92,2.77s-2.08.69-3.31.69c-1.83,0-3.3-.5-4.43-1.49-1.13-.99-1.69-2.33-1.69-4,0-1.22.33-2.35.98-3.38.66-1.03,1.71-1.84,3.17-2.43,1.46-.59,4.11-1.02,7.95-1.31v-1.12c0-1.9-.94-2.84-2.83-2.84-2.02,0-3.14.95-3.37,2.84l-5.32-.5c.35-2.22,1.4-3.79,3.15-4.72,1.75-.93,3.74-1.39,5.95-1.39,1.33,0,2.58.15,3.75.46s2.09.77,2.75,1.39,1.1,1.27,1.33,1.96c.23.69.35,1.89.35,3.61v8.85c0,1.7.12,2.92.35,3.65Zm-6.11-9.36c-4.02.4-6.03,1.62-6.03,3.65,0,.68.21,1.27.64,1.77.42.5,1.03.74,1.81.74,1.01,0,1.87-.42,2.55-1.27.69-.84,1.03-1.88,1.03-3.12v-1.78Z" fill="#3c3c3b" stroke-width="0"/>
      <path d="m80.21,12.41v15.04h-5.61v-15.04h-2.26v-4.49h2.26c.03-2.01.17-3.48.43-4.4.26-.92.94-1.74,2.04-2.46s2.58-1.07,4.47-1.07c.77,0,1.66.07,2.67.21v4.45c-.83-.06-1.51-.1-2.05-.1-.79,0-1.31.21-1.57.62-.26.41-.39,1.08-.39,2.01v.73h3.54v4.49h-3.54Z" fill="#3c3c3b" stroke-width="0"/>
      <path d="m101.92,7.93l-6.12,18.73c-.68,2.09-1.27,3.6-1.75,4.53-.48.94-1.18,1.68-2.09,2.24s-2.18.84-3.8.84c-.81,0-1.73-.08-2.77-.23v-4.43c1.02.18,1.96.27,2.83.27,1.14,0,1.9-.21,2.29-.64.39-.43.68-1.03.87-1.8l-7.11-19.52h6.09l3.76,11.62,3.62-11.62h4.18Z" fill="#3c3c3b" stroke-width="0"/>
    </g>
  </g>
</svg>